<svg id="Layer_1" viewBox="0 0 512 512" xmlns="http://www.w3.org/2000/svg" data-name="Layer 1"><path d="m206.861 410.962a39.533 39.533 0 1 0 27.949 11.578 39.405 39.405 0 0 0 -27.949-11.578zm181.639 0a39.513 39.513 0 1 0 27.952 11.578 39.412 39.412 0 0 0 -27.952-11.578zm-204.949-67.64-18.93 46.339h262.05a7.957 7.957 0 0 1 5.77 2.46l32.9 30.21a7.983 7.983 0 0 1 -10.811 11.75l-30.95-28.419h-270.83v-.032a7.964 7.964 0 0 1 -7.368-10.969l24.418-59.791-39.9-138.4h-.011l-41.847-152.099a8.575 8.575 0 0 0 -8.442-6.381h-71.6a8 8 0 0 1 0-16h71.6a24.52 24.52 0 0 1 23.811 18.2l19.07 69.289.342-.009h381.177a8.006 8.006 0 0 1 7.43 10.968l-62.58 217.072a7.97 7.97 0 0 1 -7.65 5.779v.032z" fill="#32a353" fill-rule="evenodd"/></svg>